<?xml version="1.0" ?><!DOCTYPE svg  PUBLIC '-//W3C//DTD SVG 1.1//EN'  'http://www.w3.org/Graphics/SVG/1.1/DTD/svg11.dtd'><svg height="148px" style="enable-background:new 0 0 69 148;" version="1.1" viewBox="0 0 69 148" width="69px" xml:space="preserve" xmlns="http://www.w3.org/2000/svg" xmlns:xlink="http://www.w3.org/1999/xlink"><style type="text/css">
<![CDATA[
	.st0{fill:#EF3E42;}
	.st1{fill:#FFFFFF;}
	.st2{fill:none;}
	.st3{fill-rule:evenodd;clip-rule:evenodd;fill:#FFFFFF;}
]]>
</style><defs/><path d="M43.8,96.2l3.9-1.3c2.3-0.8,4.8,0.5,5.6,2.8l6.9,21.1c0.8,2.3-0.5,4.8-2.8,5.6l-3.9,1.3L43.8,96.2L43.8,96.2z M27,76.1  c6.2,19,10.5,21.3,13.2,21.3l9.5,29.6c-6.5,2.1-17.6-6.6-21.6-11.2c-7-8.2-13.7-21.1-18-34.4C5.2,66.2,3.8,53.8,4.9,43.5  c0.9-8.1,5.4-18.7,11.1-20.8l9.8,30.1C22.6,54.4,21.3,58.7,27,76.1L27,76.1z M19.5,21.6l3.9-1.3c2.3-0.8,4.8,0.5,5.6,2.8l7.1,21.7  c0.8,2.3-0.5,4.8-2.8,5.6l-3.9,1.3L19.5,21.6L19.5,21.6z"/><rect class="st2" height="148" id="_x3C_Slice_x3E__100_" width="69"/></svg>